<svg width="240" height="31" viewBox="0 0 240 31" fill="none" xmlns="http://www.w3.org/2000/svg">
<path d="M30.5094 0.0110168H3.31269C0.739285 0.0110168 -0.844352 2.8525 0.475343 5.09226L14.5631 28.8827C15.6298 30.6767 18.1922 30.6767 19.248 28.8827L33.3357 5.09226C34.6664 2.8525 33.0828 0.0110168 30.5094 0.0110168ZM16.9056 22.91C12.5726 18.7091 8.22855 13.093 8.22855 8.89204C8.22855 6.57428 10.1751 4.69111 12.5616 4.69111C14.739 4.69111 15.8828 6.19542 16.9605 8.30146C18.7091 5.52684 19.457 4.69111 21.6235 4.69111C24.0099 4.69111 25.5715 6.57428 25.5715 8.89204C25.5825 13.093 21.2495 18.6979 16.9056 22.91Z" fill="#F7007B"/>
<path d="M43.7173 1.52659C42.0567 2.12832 40.748 2.91948 39.8132 3.88892C38.8784 4.85837 38.2296 5.95039 37.8887 7.12041C37.5697 8.24586 37.4048 9.37132 37.4048 10.4745V30.3091H43.2114V10.5079C43.1784 9.27103 43.3764 8.26815 43.7723 7.52156C44.1902 6.76384 44.7291 6.15096 45.3779 5.70524C46.0488 5.24837 46.8076 4.91408 47.6434 4.72465C48.5122 4.52408 49.359 4.39036 50.1508 4.3235C51.4155 4.22321 52.4273 4.11178 53.1641 4.0115C53.945 3.90007 54.6158 3.6995 55.1547 3.43206L55.4956 3.26491V0.646295H50.1068C47.5004 0.624009 45.3559 0.924864 43.7173 1.52659Z" fill="#1D1D1B"/>
<path d="M76.3577 2.49604C75.28 1.67146 74.0153 1.04745 72.6186 0.624009C71.2329 0.211716 69.7703 0 68.2856 0C66.8009 0 65.3383 0.211716 63.9526 0.624009C62.5449 1.04745 61.2912 1.67146 60.2135 2.49604C59.1247 3.32063 58.2339 4.35694 57.5741 5.56039C56.9032 6.77498 56.5733 8.16786 56.5733 9.69446V21.3055C56.5733 22.8321 56.9142 24.2139 57.5741 25.4173C58.2339 26.5985 59.1137 27.6237 60.2025 28.4482C61.2802 29.2728 62.5339 29.908 63.9306 30.3426C65.3163 30.7771 66.7789 31 68.2746 31C69.7703 31 71.2329 30.7771 72.6186 30.3426C74.0153 29.908 75.269 29.2728 76.3577 28.4482C77.4465 27.6237 78.3373 26.5985 78.9861 25.4173C79.657 24.2139 79.9869 22.8321 79.9869 21.3055V9.69446C79.9869 8.16786 79.646 6.78612 78.9861 5.56039C78.3373 4.35694 77.4465 3.32063 76.3577 2.49604ZM74.2352 9.83933V21.0827C74.2352 22.9213 73.7293 24.3699 72.6956 25.5288C71.6838 26.6654 70.2321 27.2225 68.2746 27.2225C66.3171 27.2225 64.8654 26.6654 63.8536 25.5288C62.8199 24.3699 62.314 22.9101 62.314 21.0827V9.83933C62.314 8.00072 62.8199 6.55212 63.8536 5.39324C64.8654 4.25665 66.3171 3.6995 68.2746 3.6995C70.2321 3.6995 71.6838 4.25665 72.6956 5.39324C73.7403 6.55212 74.2352 8.01187 74.2352 9.83933Z" fill="#1D1D1B"/>
<path d="M120.128 2.49604C119.05 1.67146 117.785 1.04745 116.389 0.624009C115.003 0.211716 113.54 0 112.056 0C110.241 0 108.514 0.300858 106.909 0.89144C105.49 1.41516 104.247 2.17289 103.214 3.1312C102.169 2.17289 100.926 1.41516 99.4966 0.89144C97.8799 0.300858 96.1533 0 94.3828 0H82.6155V30.298H88.4221V3.6995H94.3828C96.3073 3.6995 97.737 4.25665 98.7597 5.39324C99.7935 6.55212 100.299 8.01187 100.299 9.83933V30.298H106.106V9.83933C106.106 8.00072 106.612 6.55212 107.646 5.39324C108.668 4.25665 110.109 3.6995 112.067 3.6995C113.991 3.6995 115.421 4.25665 116.444 5.39324C117.477 6.55212 117.983 8.01187 117.983 9.83933V30.298H123.768V9.68332C123.768 8.15672 123.427 6.77498 122.767 5.56039C122.107 4.35694 121.228 3.33177 120.128 2.49604Z" fill="#1D1D1B"/>
<path d="M148.567 5.24839C147.621 3.95579 146.444 2.96406 145.081 2.29547C143.739 1.64917 142.309 1.21459 140.814 1.01402C139.351 0.824586 138.064 0.724304 136.987 0.724304C135.667 0.724304 134.644 0.802299 133.874 0.969444C133.105 1.13659 132.456 1.35945 131.928 1.61574L131.587 1.78289V4.30123H135.645C136.437 4.30123 137.361 4.35694 138.405 4.47951C139.395 4.59094 140.352 4.86952 141.243 5.3041C142.1 5.72753 142.826 6.36269 143.387 7.19842C143.882 7.93387 144.146 8.93674 144.179 10.1959C142.21 10.0956 140.242 10.1402 138.317 10.3073C136.14 10.5079 134.149 10.9871 132.401 11.7337C130.619 12.5025 129.145 13.5945 128.002 14.9874C126.836 16.4137 126.22 18.2746 126.187 20.5255C126.154 22.7096 126.627 24.4702 127.595 25.7739C128.541 27.0442 129.717 28.0248 131.081 28.6934C132.423 29.3397 133.852 29.7743 135.348 29.9748C136.8 30.1643 138.097 30.2646 139.175 30.2646H149.964V10.4411C150.008 8.33501 149.535 6.57441 148.567 5.24839ZM144.168 26.5539H140.517C139.725 26.5539 138.79 26.4982 137.746 26.3979C136.756 26.2976 135.799 26.0414 134.908 25.6179C134.05 25.2168 133.325 24.6039 132.764 23.7904C132.214 23.0104 131.95 21.8738 131.983 20.4141C132.016 18.9655 132.368 17.7955 133.039 16.9375C133.72 16.0572 134.633 15.3774 135.766 14.9206C136.932 14.4414 138.295 14.1405 139.824 14.0291C140.66 13.9623 141.529 13.9288 142.419 13.9288C142.991 13.9288 143.585 13.94 144.179 13.9734V26.5539H144.168Z" fill="#1D1D1B"/>
<path d="M171.761 2.19517C170.408 1.54887 168.956 1.11429 167.472 0.913715C166.009 0.724283 164.722 0.623993 163.645 0.623993H152.911V30.298H158.718V4.32349H162.314C163.117 4.32349 164.052 4.3792 165.107 4.47949C166.108 4.57978 167.076 4.83608 167.967 5.25951C168.824 5.66066 169.528 6.28467 170.078 7.09811C170.617 7.90041 170.881 9.04815 170.848 10.519V30.298H176.655V10.3185C176.688 8.16785 176.226 6.42953 175.28 5.12579C174.334 3.84434 173.157 2.86375 171.761 2.19517Z" fill="#1D1D1B"/>
<path d="M197.836 0.824617C197.066 0.657471 196.054 0.579468 194.713 0.579468L192.051 0.635187C191.358 0.635187 190.545 0.668614 189.643 0.746615C188.719 0.824617 187.773 0.969481 186.827 1.20349C185.871 1.43749 184.914 1.76063 184.001 2.17293C183.044 2.59636 182.198 3.18694 181.483 3.91124C180.768 4.64668 180.174 5.53814 179.734 6.57444C179.294 7.62189 179.085 8.8922 179.118 10.3074V20.5478C179.085 21.9853 179.283 23.2445 179.734 24.2919C180.174 25.3282 180.757 26.2308 181.483 26.9662C182.198 27.6905 183.044 28.2923 184.001 28.7269C184.925 29.1614 185.882 29.4957 186.838 29.7297C187.795 29.9637 188.741 30.1197 189.654 30.1866C190.556 30.2535 191.358 30.298 192.062 30.298H194.735C196.054 30.298 197.066 30.22 197.825 30.0752C198.595 29.9303 199.255 29.7186 199.782 29.4511L200.123 29.284V26.554H193.448C192.656 26.554 191.71 26.4982 190.655 26.398C189.654 26.2977 188.686 26.0414 187.795 25.6179C186.937 25.2168 186.223 24.6039 185.651 23.7905C185.101 23.0105 184.859 21.8739 184.914 20.4364V10.5191V10.4857C184.848 9.03705 185.101 7.90046 185.651 7.09816C186.223 6.27357 186.937 5.64957 187.795 5.24841C188.686 4.82498 189.654 4.56868 190.655 4.4684C191.71 4.36811 192.645 4.31239 193.448 4.31239H200.123V1.63806L199.782 1.47092C199.255 1.20348 198.595 0.991763 197.836 0.824617Z" fill="#1D1D1B"/>
<path d="M222.162 2.6965C221.095 1.8162 219.842 1.14761 218.445 0.690745C217.048 0.245022 215.608 0.0110168 214.145 0.0110168C212.286 0.0110168 210.615 0.323027 209.152 0.947039C207.689 1.57105 206.436 2.44021 205.424 3.54338C204.412 4.64654 203.631 5.96141 203.092 7.45459C202.554 8.93661 202.279 10.5747 202.279 12.3018V20.57C202.246 22.754 202.718 24.5146 203.686 25.8184C204.632 27.0887 205.809 28.0693 207.172 28.7378C208.514 29.3953 209.944 29.8187 211.439 30.0193C212.891 30.2087 214.178 30.309 215.267 30.309H217.323C218.643 30.309 219.666 30.231 220.435 30.0639C221.205 29.8967 221.854 29.6739 222.382 29.4176L222.723 29.2504V26.5761H216.608C215.816 26.5761 214.893 26.5204 213.87 26.4201C212.891 26.3198 211.967 26.0747 211.11 25.6847C210.285 25.3169 209.57 24.7375 208.987 23.9686C208.426 23.2332 208.118 22.1523 208.085 20.7817V18.9542C208.866 19.1102 209.724 19.2105 210.648 19.2662C211.89 19.3331 213.177 19.2885 214.486 19.1325C215.783 18.9765 217.081 18.6979 218.346 18.3079C219.633 17.9068 220.798 17.3608 221.821 16.6699C222.855 15.9679 223.735 15.0876 224.405 14.0513C225.098 12.9927 225.483 11.7335 225.56 10.2961C225.637 8.70261 225.351 7.24287 224.724 5.96142C224.098 4.67997 223.24 3.5768 222.162 2.6965ZM220.006 9.96177C219.941 11.0427 219.622 11.9118 219.028 12.6138C218.412 13.327 217.565 13.9064 216.52 14.3187C215.432 14.7422 214.112 15.0319 212.605 15.1656C211.231 15.2882 209.713 15.2882 208.085 15.1656V10.3741C208.085 8.39061 208.635 6.76372 209.724 5.52684C210.813 4.3011 212.253 3.69938 214.145 3.69938C214.959 3.69938 215.75 3.83309 216.476 4.10053C217.202 4.36796 217.84 4.76911 218.39 5.29284C218.94 5.81656 219.358 6.46285 219.655 7.22058C219.952 7.98945 220.072 8.91433 220.006 9.96177Z" fill="#1D1D1B"/>
<path d="M235.546 5.87238V5.80553C236.228 5.59381 236.712 5.11465 236.712 4.49064C236.712 3.93349 236.47 3.48776 236.162 3.24262C235.744 2.99747 235.271 2.81918 234.204 2.81918C233.281 2.81918 232.555 2.88604 232.049 2.99747V8.69158H233.347V6.39611H233.962C234.677 6.39611 235.029 6.67468 235.128 7.29869C235.304 7.95613 235.403 8.47986 235.579 8.69158H236.987C236.844 8.47986 236.745 8.13442 236.569 7.26526C236.404 6.49639 236.096 6.0841 235.546 5.87238ZM234.006 5.44895H233.391V3.82206C233.522 3.78863 233.764 3.7552 234.105 3.7552C234.93 3.7552 235.304 4.10064 235.304 4.62436C235.304 5.21495 234.721 5.44895 234.006 5.44895Z" fill="#1D1D1B"/>
<path d="M234.248 0C231.026 0 228.464 2.52948 228.464 5.69411C228.464 8.9256 231.037 11.4551 234.248 11.4551C237.504 11.4551 240 8.9256 240 5.69411C240 2.54062 237.504 0 234.248 0ZM234.281 10.2516C231.752 10.2516 229.893 8.23472 229.893 5.70524C229.893 3.2092 231.741 1.15888 234.248 1.15888C236.745 1.15888 238.559 3.2092 238.559 5.73868C238.559 8.23473 236.745 10.2516 234.281 10.2516Z" fill="#1D1D1B"/>
</svg>
